<?xml version="1.0" encoding="UTF-8" standalone="no"?>
<svg width="99px" height="21px" viewBox="0 0 99 21" version="1.1" xmlns="http://www.w3.org/2000/svg" xmlns:xlink="http://www.w3.org/1999/xlink">
    <!-- Generator: Sketch 40.3 (33839) - http://www.bohemiancoding.com/sketch -->
    <title>logo</title>
    <desc>Created with Sketch.</desc>
    <defs>
        <path d="M16.6001873,11.5210071 C14.0353218,14.0858726 9.87550514,14.0858726 7.31063966,11.5210071 C4.74492264,8.95614162 4.74492264,4.79632494 7.31063966,2.23145947 C9.87550514,-0.334257559 14.0353218,-0.334257559 16.6001873,2.23145947 C19.1659043,4.79632494 19.1659043,8.95614162 16.6001873,11.5210071" id="path-1"></path>
    </defs>
    <g id="FAQ" stroke="none" stroke-width="1" fill="none" fill-rule="evenodd">
        <g transform="translate(-140.000000, -20.000000)" id="HEADER">
            <g transform="translate(-10.000000, 0.000000)">
                <g id="logo" transform="translate(143.000000, 14.000000)">
                    <g id="Group" transform="translate(32.511243, 9.438748)" fill="#2A354D">
                        <path d="M32.4402485,10.7576113 C33.5132002,10.7576113 34.4192483,10.3999608 35.1345494,9.68465963 C35.8498505,8.94551513 36.2075011,8.03946703 36.2075011,6.94267197 C36.2075011,5.84587691 35.8498505,4.93982881 35.1345494,4.22452768 C34.4192483,3.48538318 33.5132002,3.12773262 32.4402485,3.12773262 C31.3672968,3.12773262 30.4612487,3.48538318 29.7459476,4.22452768 C29.0306464,4.93982881 28.6729959,5.84587691 28.6729959,6.94267197 C28.6729959,8.03946703 29.0306464,8.94551513 29.7459476,9.68465963 C30.4612487,10.3999608 31.3672968,10.7576113 32.4402485,10.7576113 L32.4402485,10.7576113 Z M36.2075011,0.981829231 L38.7825852,0.981829231 L38.7825852,12.9035147 L36.2075011,12.9035147 L36.2075011,11.186792 C35.2299229,12.5458641 33.8470074,13.2134785 32.0349112,13.2134785 C30.3897186,13.2134785 29.0068031,12.6173943 27.8384779,11.4013823 C26.6701527,10.1853704 26.0979118,8.68323805 26.0979118,6.94267197 C26.0979118,5.17826252 26.6701527,3.69997352 27.8384779,2.4839616 C29.0068031,1.26794968 30.3897186,0.671865409 32.0349112,0.671865409 C33.8470074,0.671865409 35.2299229,1.3394798 36.2075011,2.67470857 L36.2075011,0.981829231 Z" id="Fill-215"></path>
                        <path d="M66.5113186,10.7100097 C67.5604269,10.7100097 68.4426316,10.3523592 69.1579328,9.63705804 C69.8732339,8.92175691 70.2308844,8.01570882 70.2308844,6.94275713 C70.2308844,5.86980543 69.8732339,4.96375734 69.1579328,4.24845621 C68.4426316,3.53315508 67.5604269,3.17550451 66.5113186,3.17550451 C65.4622103,3.17550451 64.5800055,3.53315508 63.8647044,4.24845621 C63.1494033,4.96375734 62.7917527,5.86980543 62.7917527,6.94275713 C62.7917527,8.01570882 63.1494033,8.92175691 63.8647044,9.63705804 C64.5800055,10.3523592 65.4622103,10.7100097 66.5113186,10.7100097 M62.0526082,11.4014675 C60.8365963,10.1854556 60.2166686,8.70716658 60.2166686,6.94275713 C60.2166686,5.17834767 60.8365963,3.70005868 62.0526082,2.48404676 C63.2686201,1.26803484 64.7707525,0.671950564 66.5113186,0.671950564 C68.275728,0.671950564 69.754017,1.26803484 70.9700289,2.48404676 C72.1860409,3.70005868 72.8059685,5.17834767 72.8059685,6.94275713 C72.8059685,8.70716658 72.1860409,10.1854556 70.9700289,11.4014675 C69.754017,12.6174794 68.275728,13.2135637 66.5113186,13.2135637 C64.7707525,13.2135637 63.2686201,12.6174794 62.0526082,11.4014675" id="Fill-217"></path>
                        <path d="M3.06564125,8.04398024 C3.06564125,10.3567872 4.28165317,10.8055535 6.09374936,10.8055535 C7.73894196,10.8055535 8.76420691,9.82797532 8.76420691,8.0397225 L8.76420691,0.981233147 L11.339291,0.981233147 L11.339291,8.30199958 C11.339291,11.3539511 9.05543666,13.213734 6.313449,13.213734 C4.62056966,13.213734 3.85247249,12.5938064 3.06564125,11.3777944 L0.490557189,0.981233147 L3.06564125,0.981233147 L3.06564125,8.04398024 Z" id="Fill-219"></path>
                        <path d="M8.76437722,0.981573767 L11.3394613,0.981573767 L8.76437722,11.3772835 C7.97754598,12.5932954 7.20944881,13.2140746 5.51656948,13.2140746 C2.77458182,13.2140746 0.490727499,11.3534401 0.490727499,8.30148865 L0.490727499,0.981573767 L3.06581156,0.981573767 L3.06581156,8.03921157 C3.06581156,9.82746439 4.09107651,10.8050426 5.73626911,10.8050426 C7.5483653,10.8050426 8.76437722,10.5810852 8.76437722,8.26827824 L8.76437722,0.981573767 Z" id="Fill-221"></path>
                        <path d="M22.0209509,5.8413637 C22.0209509,3.52855671 20.8049389,3.07979041 18.9928427,3.07979041 C17.3476501,3.07979041 16.3223852,4.05736862 16.3223852,5.84562144 L16.3223852,12.9041108 L13.7473011,12.9041108 L13.7473011,5.58334436 C13.7473011,2.53139288 16.0311554,0.671609944 18.7731431,0.671609944 C20.4660224,0.671609944 21.2341196,1.29153759 22.0209509,2.50754951 L24.5960349,12.9041108 L22.0209509,12.9041108 L22.0209509,5.8413637 Z" id="Fill-223"></path>
                        <path d="M16.3223,12.903685 L13.747216,12.903685 L16.3223,2.50797528 C17.1091313,1.29196336 17.8772284,0.67118417 19.5701078,0.67118417 C22.3120954,0.67118417 24.5959498,2.53181865 24.5959498,5.58377014 L24.5959498,12.903685 L22.0208657,12.903685 L22.0208657,5.84604722 C22.0208657,4.05779439 20.9956007,3.08021619 19.3504082,3.08021619 C17.538312,3.08021619 16.3223,3.30417356 16.3223,5.61698055 L16.3223,12.903685 Z" id="Fill-225"></path>
                        <path d="M46.1445666,0.671609944 C47.7897592,0.671609944 48.5578563,1.29153759 49.3446876,2.55523625 C50.0838321,1.29153759 51.6523853,0.671609944 53.178361,0.671609944 C54.6804934,0.671609944 55.3770604,1.24385085 56.1400483,2.41217602 L58.7151324,12.9041108 L56.1400483,12.9041108 L56.1400483,5.33128587 C56.1400483,3.25691259 55.0432532,3.07979041 53.4934341,3.07979041 C52.0628319,3.07979041 51.2521573,4.03352525 51.2521573,5.67871784 L51.2521573,12.9041108 L48.6770732,12.9041108 L48.6770732,5.55524325 C48.6770732,3.4570266 47.6756516,3.07979041 46.0781458,3.07979041 C44.6475435,3.07979041 43.7653388,4.03352525 43.7653388,5.67871784 L43.7653388,12.9041108 L41.1902547,12.9041108 L41.1902547,5.51181425 C41.1902547,2.55523625 43.4502657,0.671609944 46.1445666,0.671609944" id="Fill-227"></path>
                        <path d="M58.7155581,5.51206971 L58.7155581,12.9035147 L56.1404741,12.9035147 L56.1404741,5.67897331 C56.1404741,4.03378071 55.2582693,3.08004588 53.8276671,3.08004588 C52.2301612,3.08004588 51.2287397,3.23332469 51.2287397,5.33154133 L51.2287397,12.9035147 L48.652804,12.9035147 L48.652804,5.67897331 C48.652804,4.03378071 47.842981,3.08004588 46.4115272,3.08004588 C44.8617081,3.08004588 43.764913,3.25716806 43.764913,5.33154133 L43.764913,12.9035147 L41.1898289,12.9035147 L43.764913,2.41243149 C44.5279009,1.24410631 45.2244679,0.671865409 46.7266003,0.671865409 C48.252576,0.671865409 49.8219808,1.29179305 50.5611253,2.55549171 C51.3479565,1.29179305 52.1152021,0.671865409 53.7612463,0.671865409 C56.4555472,0.671865409 58.7155581,2.55549171 58.7155581,5.51206971" id="Fill-229"></path>
                    </g>
                    <g id="Group-2" transform="translate(14.244745, 16.562793) rotate(-45.000000) translate(-14.244745, -16.562793) translate(4.744745, 7.062793)">
                        <path d="M11.9554135,16.1657809 C9.38969646,18.7306464 5.23073132,18.7306464 2.66586585,16.1657809 C0.100148822,13.6009154 0.100148822,9.44109876 2.66586585,6.87623328 C5.23073132,4.31051626 9.38969646,4.31051626 11.9554135,6.87623328 C14.520279,9.44109876 14.520279,13.6009154 11.9554135,16.1657809" id="Fill-231" fill="#253645"></path>
                        <polygon id="Fill-233" fill="#253645" points="15.8586092 12.2625852 6.56906159 2.97303754 1.92386199 7.61738559 11.2134096 16.9077848"></polygon>
                        <path d="M8.78623962,5.40046302 C7.50380688,6.68289575 7.50380688,8.76237832 8.78623962,10.0456626 C10.0686724,11.3280953 12.1481549,11.3280953 13.4314392,10.0456626 C14.7138719,8.76237832 14.7138719,6.68289575 13.4314392,5.40046302 C12.1481549,4.11803028 10.0686724,4.11803028 8.78623962,5.40046302" id="Fill-235" fill="#F97243"></path>
                        <g id="Fill-237">
                            <use fill="#01C4B5" xlink:href="#path-1"></use>
                            <use fill="#00C1B3" xlink:href="#path-1"></use>
                        </g>
                    </g>
                </g>
            </g>
        </g>
    </g>
</svg>